<svg xmlns="http://www.w3.org/2000/svg" width="48" height="48" viewBox="0 0 48 48" fill="none">
  <defs>
    <linearGradient id="shieldGrad" x1="6" y1="4" x2="42" y2="44" gradientUnits="userSpaceOnUse">
      <stop offset="0%" stop-color="#0B2545"/>
      <stop offset="50%" stop-color="#1D4E89"/>
      <stop offset="100%" stop-color="#2E86AB"/>
    </linearGradient>
    <linearGradient id="innerGlow" x1="14" y1="12" x2="34" y2="38" gradientUnits="userSpaceOnUse">
      <stop offset="0%" stop-color="#ffffff" stop-opacity="0.25"/>
      <stop offset="100%" stop-color="#ffffff" stop-opacity="0"/>
    </linearGradient>
  </defs>
  <!-- Shield Base -->
  <path d="M24 3L6 11V22C6 33.1 13.44 43.48 24 46C34.56 43.48 42 33.1 42 22V11L24 3Z" fill="url(#shieldGrad)"/>
  <path d="M24 3L6 11V22C6 33.1 13.44 43.48 24 46C34.56 43.48 42 33.1 42 22V11L24 3Z" fill="url(#innerGlow)"/>
  <!-- Inner Hexagon -->
  <path d="M24 12L32 17V27L24 32L16 27V17L24 12Z" stroke="#ffffff" stroke-width="2" stroke-linecap="round" stroke-linejoin="round" fill="none"/>
  <!-- Cross (services symbol) -->
  <line x1="24" y1="17" x2="24" y2="27" stroke="#ffffff" stroke-width="2.2" stroke-linecap="round"/>
  <line x1="19" y1="22" x2="29" y2="22" stroke="#ffffff" stroke-width="2.2" stroke-linecap="round"/>
  <!-- Bottom accent dots (3 services) -->
  <circle cx="18" cy="37" r="2" fill="#4FC3F7" opacity="0.9"/>
  <circle cx="24" cy="39" r="2" fill="#81C784" opacity="0.9"/>
  <circle cx="30" cy="37" r="2" fill="#FFD54F" opacity="0.9"/>
</svg>